<svg xmlns="http://www.w3.org/2000/svg" baseProfile="tiny" version="1.2" viewBox="0 0 24 24" fill="none" stroke="#6b7280" stroke-width="1.5">
  <path d="M13.7,1.7s0,0,0,0-.2.4-.5.9c-.3.5-.5.9-.5.9,0,.1,0,.1-.5.2h-.4s0,0,0,0c0,0,0,0-.7-.9-.3-.5-.6-.9-.6-.9,0,0-.1-.1-.2-.1s-1.9.6-2,.7c0,0-.1.1,0,.4,0,.5.1,1.4.1,1.7v.2s0,0,0,0c0,0,0,.1-.4.3-.2.1-.4.2-.4.2-.1,0-.1,0-1.2-.4-1.1-.4-1-.4-1.2-.4,0,0-1.3,1.5-1.3,1.6,0,0,0,0,0,.1,0,0,.2.4.7.9.5.7.6.8.6.9q0,.1-.2.6c-.2.4-.2.5-.4.6,0,0-.5.1-1.1.2-1.1.2-1.1.2-1.1.3,0,.1-.3,2.1-.2,2.1,0,0,.5.2,1,.4s1,.4,1.1.4c.1,0,.1.1.2.7,0,.3,0,.5,0,.6s0,.1,0,.1c0,0-.3.3-.8.8-.4.4-.8.7-.8.8,0,0,0,0,0,.1,0,0,0,.2.4.9.2.4.4.8.5.8,0,0,0,0,.1,0,0,0,.1,0,1.1-.2,1.1-.2,1.1-.2,1.2-.2,0,0,.8.8.9.9,0,.1,0,.1-.1.8-.4,1.5-.4,1.5-.4,1.5,0,0,0,0,0,.1s.4.2.8.5c.7.4.8.4.9.4s0,0,.1,0c0,0,.4-.4.8-.8s.7-.7.8-.8c.1,0,.2,0,.7,0,.3,0,.6.1.6.1.1,0,.1,0,.5,1.1.3,1,.3,1,.4,1.1,0,0,0,0,.1,0,.1,0,1.1,0,1.6-.1.3,0,.3,0,.4-.2,0,0,.1-.5.2-1.1.1-.7.2-1,.2-1.1,0-.1.1-.1.6-.3.5-.2.6-.2.7-.2,0,0,.4.3.8.7.4.3.8.6.8.7,0,0,0,0,.1,0,0,0,.1,0,.6-.4.9-.7,1-.8,1.1-.8,0,0,0,0,0-.1,0,0,0-.2-.4-1.1-.2-.5-.4-1-.4-1,0-.1,0-.2.3-.5.1-.2.3-.4.3-.4,0,0,.2-.1.2-.1,0,0,.5,0,1.1.1h1c0,.1,0,0,0,0,0,0,0,0,0,0,0,0,.6-1.5.7-1.8,0-.1,0-.2,0-.3,0,0-.4-.3-.9-.7-.8-.6-.8-.6-.9-.7h0c0,0,0-.4,0-.4,0-.5,0-.5,0-.6,0,0,0,0,1-.5.5-.3,1-.5,1-.5,0,0,0-.1,0-.2,0,0-.4-2-.4-2,0,0,0,0,0,0,0,0,0,0-1.6-.1-.6,0-.6,0-.7-.1,0,0-.4-.6-.4-.7,0,0,0,0,0-.1,0,0,.3-.5.6-1,.5-.9.5-.9.5-1,0,0,0,0,0-.1,0,0-1.4-1.4-1.5-1.5,0,0,0,0-.1,0h0s-.9.5-.9.5c-.5.3-.9.5-1,.5-.1,0-.2,0-.5-.2-.3-.2-.3-.2-.4-.3,0,0,0,0,0-1.2,0-1,0-1,0-1.1,0-.1,0,0-1.6-.5-.3,0-.5-.1-.5-.1,0,0,0,0,0,0Z"/>
  <path d="M12.9,7.3c.3,0,.6.1.9.2,1.6.5,2.8,1.9,3.1,3.5,0,.4,0,.5,0,.9,0,.4,0,.5,0,.8-.2,1.5-1.2,2.8-2.5,3.4-.5.3-1,.4-1.6.5-.2,0-.9,0-1.1,0-1.1-.1-2.1-.6-2.8-1.4-1.1-1.1-1.5-2.6-1.2-4.2.2-1,.7-2,1.5-2.6.8-.7,1.7-1.1,2.7-1.2.2,0,.8,0,1,0Z"/>
</svg>